<svg class="diagram-root" style="background: #f5f6f6" xmlns="http://www.w3.org/2000/svg" xmlns:xlink="http://www.w3.org/1999/xlink"><style>.diagram-root { font-family: "Helvetica Neue", sans-serif; font-size: 12px; } .t { overflow: visible; } .t-bg { y: 40; fill: #fff;   } .th { fill: #005aa0;   } .tht { fill: #fff; font-size: 14px;  } .tf { fill: #323c46; overflow: visible; } .tf.pk { fill: #005aa0; font-weight: bold; } .tf.fk { font-weight: bold; } .ty { fill: #adb1b5; font-weight: normal; text-anchor: end; } .r { fill: transparent; stroke: #c3c3c3; stroke-width: 1; } .l { stroke: 1; } .i { fill: #c2c7ce; stroke: #c2c7ce; } .i.ix { fill: #afb3b6; stroke: #000; } .fa { fill: transparent; overflow: visible; } .fa .bg.hover { fill: #f7f7f7; } .c { cy: 12; r: 4; stroke: #d2d2dc; fill: #d2d2dc; } .hr { fill: transparent; stroke: #323c46; stroke-opacity: 0.035; stroke-width: 13; } .dc { stroke: #fa5a3c; fill: #fa5a3c; } .x { stroke: white; stroke-width: 1; } .hl .th { fill: #1b9bff; } .hl .tht {  } .fhl .bg { fill: #e7f4ff; } .fhls .bg {  } .r.hl { stroke: #1b9bff; } .dim { opacity: 0.25; }</style><g class="drawing-wrapper" transform="translate(-3, 0) scale(1,1)"><g class="rs"><path d="M 652.5 331 m -1, 0 a 1,1 0 1,0 2,0 a 1,1 0 1,0 -2,0 M 652.5 331 m -0.5, 0 a 0.5,0.5 0 1,0 1,0 a 0.5,0.5 0 1,0 -1,0  M652.5 331 L652.5 331 664.5 331 M 652.5 337 m -1, 0 a 1,1 0 1,0 2,0 a 1,1 0 1,0 -2,0 M 652.5 337 m -0.5, 0 a 0.5,0.5 0 1,0 1,0 a 0.5,0.5 0 1,0 -1,0  M652.5 337 L652.5 337 659.5 331 652.5 325 M 652.5 325 m -1, 0 a 1,1 0 1,0 2,0 a 1,1 0 1,0 -2,0 M 652.5 325 m -0.5, 0 a 0.5,0.5 0 1,0 1,0 a 0.5,0.5 0 1,0 -1,0  M664.5 331 C 724.068 331, 720.48 87, 670.48 87 M 658.48 87 m -1, 0 a 1,1 0 1,0 2,0 a 1,1 0 1,0 -2,0 M 658.48 87 m -0.5, 0 a 0.5,0.5 0 1,0 1,0 a 0.5,0.5 0 1,0 -1,0  M658.48 87 L658.48 87 670.48 87 M664.48 93 L664.48 93 664.48 81" id="h1537058300" class="r"></path><path d="M 334.17 136 m -1, 0 a 1,1 0 1,0 2,0 a 1,1 0 1,0 -2,0 M 334.17 136 m -0.5, 0 a 0.5,0.5 0 1,0 1,0 a 0.5,0.5 0 1,0 -1,0  M334.17 136 L334.17 136 346.17 136 M 334.17 142 m -1, 0 a 1,1 0 1,0 2,0 a 1,1 0 1,0 -2,0 M 334.17 142 m -0.5, 0 a 0.5,0.5 0 1,0 1,0 a 0.5,0.5 0 1,0 -1,0  M334.17 142 L334.17 142 341.17 136 334.17 130 M 334.17 130 m -1, 0 a 1,1 0 1,0 2,0 a 1,1 0 1,0 -2,0 M 334.17 130 m -0.5, 0 a 0.5,0.5 0 1,0 1,0 a 0.5,0.5 0 1,0 -1,0  M346.17 136 Q 377.63 136, 409.09 221 T 472 306 M 484 306 m -1, 0 a 1,1 0 1,0 2,0 a 1,1 0 1,0 -2,0 M 484 306 m -0.5, 0 a 0.5,0.5 0 1,0 1,0 a 0.5,0.5 0 1,0 -1,0  M484 306 L484 306 472 306 M478 312 L478 312 478 300" id="h1139284389" class="r"></path><path d="M 334.17 161 m -1, 0 a 1,1 0 1,0 2,0 a 1,1 0 1,0 -2,0 M 334.17 161 m -0.5, 0 a 0.5,0.5 0 1,0 1,0 a 0.5,0.5 0 1,0 -1,0  M334.17 161 L334.17 161 346.17 161 M 334.17 167 m -1, 0 a 1,1 0 1,0 2,0 a 1,1 0 1,0 -2,0 M 334.17 167 m -0.5, 0 a 0.5,0.5 0 1,0 1,0 a 0.5,0.5 0 1,0 -1,0  M334.17 167 L334.17 167 341.17 161 334.17 155 M 334.17 155 m -1, 0 a 1,1 0 1,0 2,0 a 1,1 0 1,0 -2,0 M 334.17 155 m -0.5, 0 a 0.5,0.5 0 1,0 1,0 a 0.5,0.5 0 1,0 -1,0  M346.17 161 C 396.17 161, 481.37 331, 204.17 331 M 192.17 331 m -1, 0 a 1,1 0 1,0 2,0 a 1,1 0 1,0 -2,0 M 192.17 331 m -0.5, 0 a 0.5,0.5 0 1,0 1,0 a 0.5,0.5 0 1,0 -1,0  M192.17 331 L192.17 331 204.17 331 M198.17 337 L198.17 337 198.17 325" id="h730141189" class="r"></path><path d="M 336.17 523 m -1, 0 a 1,1 0 1,0 2,0 a 1,1 0 1,0 -2,0 M 336.17 523 m -0.5, 0 a 0.5,0.5 0 1,0 1,0 a 0.5,0.5 0 1,0 -1,0  M336.17 523 L336.17 523 348.17 523 M 336.17 529 m -1, 0 a 1,1 0 1,0 2,0 a 1,1 0 1,0 -2,0 M 336.17 529 m -0.5, 0 a 0.5,0.5 0 1,0 1,0 a 0.5,0.5 0 1,0 -1,0  M336.17 529 L336.17 529 343.17 523 336.17 517 M 336.17 517 m -1, 0 a 1,1 0 1,0 2,0 a 1,1 0 1,0 -2,0 M 336.17 517 m -0.5, 0 a 0.5,0.5 0 1,0 1,0 a 0.5,0.5 0 1,0 -1,0  M348.17 523 Q 379.13 523, 410.09 414.5 T 472 306 M 484 306 m -1, 0 a 1,1 0 1,0 2,0 a 1,1 0 1,0 -2,0 M 484 306 m -0.5, 0 a 0.5,0.5 0 1,0 1,0 a 0.5,0.5 0 1,0 -1,0  M484 306 L484 306 472 306 M478 312 L478 312 478 300" id="h2286254435" class="r"></path><path d="M 336.17 548 m -1, 0 a 1,1 0 1,0 2,0 a 1,1 0 1,0 -2,0 M 336.17 548 m -0.5, 0 a 0.5,0.5 0 1,0 1,0 a 0.5,0.5 0 1,0 -1,0  M336.17 548 L336.17 548 348.17 548 M 336.17 554 m -1, 0 a 1,1 0 1,0 2,0 a 1,1 0 1,0 -2,0 M 336.17 554 m -0.5, 0 a 0.5,0.5 0 1,0 1,0 a 0.5,0.5 0 1,0 -1,0  M336.17 554 L336.17 554 343.17 548 336.17 542 M 336.17 542 m -1, 0 a 1,1 0 1,0 2,0 a 1,1 0 1,0 -2,0 M 336.17 542 m -0.5, 0 a 0.5,0.5 0 1,0 1,0 a 0.5,0.5 0 1,0 -1,0  M348.17 548 C 398.17 548, 484.57000000000005 331, 204.17 331 M 192.17 331 m -1, 0 a 1,1 0 1,0 2,0 a 1,1 0 1,0 -2,0 M 192.17 331 m -0.5, 0 a 0.5,0.5 0 1,0 1,0 a 0.5,0.5 0 1,0 -1,0  M192.17 331 L192.17 331 204.17 331 M198.17 337 L198.17 337 198.17 325" id="h3936989733" class="r"></path><path d="M 660.06 602 m -1, 0 a 1,1 0 1,0 2,0 a 1,1 0 1,0 -2,0 M 660.06 602 m -0.5, 0 a 0.5,0.5 0 1,0 1,0 a 0.5,0.5 0 1,0 -1,0  M660.06 602 L660.06 602 672.06 602 M 660.06 608 m -1, 0 a 1,1 0 1,0 2,0 a 1,1 0 1,0 -2,0 M 660.06 608 m -0.5, 0 a 0.5,0.5 0 1,0 1,0 a 0.5,0.5 0 1,0 -1,0  M660.06 608 L660.06 608 667.06 602 660.06 596 M 660.06 596 m -1, 0 a 1,1 0 1,0 2,0 a 1,1 0 1,0 -2,0 M 660.06 596 m -0.5, 0 a 0.5,0.5 0 1,0 1,0 a 0.5,0.5 0 1,0 -1,0  M672.06 602 C 722.06 602, 726.5959999999999 306, 664.5 306 M 652.5 306 m -1, 0 a 1,1 0 1,0 2,0 a 1,1 0 1,0 -2,0 M 652.5 306 m -0.5, 0 a 0.5,0.5 0 1,0 1,0 a 0.5,0.5 0 1,0 -1,0  M652.5 306 L652.5 306 664.5 306 M658.5 312 L658.5 312 658.5 300" id="h3177548053" class="r"></path></g><g class="hrs"></g><g class="ts"><svg width="167.17" height="100" x="25" y="274" id="h3708248841" class="t"><rect height="40" width="167.17" class="th"></rect><text x="13" y="25" class="tht">Departments</text><rect height="60" width="167.17" class="t-bg" y="40"></rect><text x="13" y="61" class="tf pk">dept_no<tspan x="154.17" class="ty">VARCHAR</tspan></text><path d="M7,14A2,2 0 0,1 5,12A2,2 0 0,1 7,10A2,2 0 0,1 9,12A2,2 0 0,1 7,14M12.65,10C11.83,7.67 9.61,6 7, 6A6, 6 0 0, 0 1, 12A6, 6 0 0, 0 7, 18C9.61, 18 11.83, 16.33 12.65, 14H17V18H21V14H23V10H12.65Z" class="i pk" transform="translate(76.37898437499999, 48) scale(0.65)"></path><text x="13" y="86" class="tf">dept_name<tspan x="154.17" class="ty">VARCHAR</tspan></text></svg><svg width="158.48" height="100" x="500" y="30" id="h311790747" class="t"><rect height="40" width="158.48" class="th"></rect><text x="13" y="25" class="tht">titles</text><rect height="60" width="158.48" class="t-bg" y="40"></rect><text x="13" y="61" class="tf pk">title_id<tspan x="145.48" class="ty">VARCHAR</tspan></text><path d="M7,14A2,2 0 0,1 5,12A2,2 0 0,1 7,10A2,2 0 0,1 9,12A2,2 0 0,1 7,14M12.65,10C11.83,7.67 9.61,6 7, 6A6, 6 0 0, 0 1, 12A6, 6 0 0, 0 7, 18C9.61, 18 11.83, 16.33 12.65, 14H17V18H21V14H23V10H12.65Z" class="i pk" transform="translate(67.68898437499999, 48) scale(0.65)"></path><text x="13" y="86" class="tf">title<tspan x="145.48" class="ty">VARCHAR</tspan></text></svg><svg width="168.5" height="225" x="484" y="249" id="h1639608377" class="t"><rect height="40" width="168.5" class="th"></rect><text x="13" y="25" class="tht">employees</text><rect height="185" width="168.5" class="t-bg" y="40"></rect><text x="13" y="61" class="tf pk">emp_no<tspan x="155.5" class="ty">integer</tspan></text><path d="M7,14A2,2 0 0,1 5,12A2,2 0 0,1 7,10A2,2 0 0,1 9,12A2,2 0 0,1 7,14M12.65,10C11.83,7.67 9.61,6 7, 6A6, 6 0 0, 0 1, 12A6, 6 0 0, 0 7, 18C9.61, 18 11.83, 16.33 12.65, 14H17V18H21V14H23V10H12.65Z" class="i pk" transform="translate(98.80859375, 48) scale(0.65)"></path><text x="13" y="86" class="tf fk">emp_title_id<tspan x="155.5" class="ty">VARCHAR</tspan></text><text x="13" y="111" class="tf">birth_date<tspan x="155.5" class="ty">DATE</tspan></text><text x="13" y="136" class="tf">first_name<tspan x="155.5" class="ty">VARCHAR</tspan></text><text x="13" y="161" class="tf">last_name<tspan x="155.5" class="ty">VARCHAR</tspan></text><text x="13" y="186" class="tf">sex<tspan x="155.5" class="ty">VARCHAR</tspan></text><text x="13" y="211" class="tf">hire_date<tspan x="155.5" class="ty">DATE</tspan></text></svg><svg width="147.17" height="100" x="187" y="79" id="h1090417462" class="t"><rect height="40" width="147.17" class="th"></rect><text x="13" y="25" class="tht">dept_emp</text><rect height="60" width="147.17" class="t-bg" y="40"></rect><text x="13" y="61" class="tf fk">emp_no<tspan x="134.17" class="ty">integer</tspan></text><text x="13" y="86" class="tf fk">dept_no<tspan x="134.17" class="ty">VARCHAR</tspan></text></svg><svg width="147.17" height="100" x="189" y="466" id="h1676682957" class="t"><rect height="40" width="147.17" class="th"></rect><text x="13" y="25" class="tht">dept_manager</text><rect height="60" width="147.17" class="t-bg" y="40"></rect><text x="13" y="61" class="tf fk">emp_no<tspan x="134.17" class="ty">integer</tspan></text><text x="13" y="86" class="tf fk">dept_no<tspan x="134.17" class="ty">VARCHAR</tspan></text></svg><svg width="126.06" height="100" x="534" y="545" id="h2472833127" class="t"><rect height="40" width="126.06" class="th"></rect><text x="13" y="25" class="tht">salaries</text><rect height="60" width="126.06" class="t-bg" y="40"></rect><text x="13" y="61" class="tf fk">emp_no<tspan x="113.06" class="ty">integer</tspan></text><text x="13" y="86" class="tf">salary<tspan x="113.06" class="ty">integer</tspan></text></svg></g></g><text class="qdbd-link" x="10" y="20">www.quickdatabasediagrams.com</text></svg>